#N canvas 265 245 1122 583 12;
#X obj 189 29 notein;
#X obj 90 404 noteout;
#X msg 98 187 36;
#X msg 156 195 38, f 4;
#X text 109 104 Input notes;
#X text 96 167 Output notes;
#X obj 765 116 pgmin;
#X obj 748 232 pgmout;
#X msg 795 175 0;
#X msg 390 97 12;
#X text 369 79 No place;
#X text 444 79 This Body;
#X msg 464 100 10;
#X msg 544 99 4;
#X text 524 78 Lullaby;
#X text 588 77 Tantra;
#X msg 608 98 7;
#X text 694 133 Default;
#X msg 658 95 0;
#X msg 709 153 100;
#X text 643 75 Clone;
#X obj 905 197 pgmin;
#X obj 888 313 pgmout;
#X text 834 214 Default;
#X msg 849 234 100;
#X obj 1035 189 pgmin;
#X obj 1018 305 pgmout;
#X text 964 206 Default;
#X msg 979 226 100;
#X obj 208 410 noteout;
#X obj 246 233 + 16;
#X obj 293 376 noteout;
#X obj 318 241 + 32;
#X msg 1065 248 33;
#X msg 935 256 17;
#X obj 436 408 noteout;
#X obj 458 336 + 48;
#X obj 138 123 route 62;
#X obj 73 122 route 60;
#X text 71 61 Input notes;
#X obj 35 79 route 36;
#X obj 120 77 route 38;
#X connect 0 0 37 0;
#X connect 0 0 40 0;
#X connect 0 0 41 0;
#X connect 0 0 38 0;
#X connect 0 1 1 1;
#X connect 0 1 29 1;
#X connect 0 1 31 1;
#X connect 0 2 1 2;
#X connect 0 2 32 0;
#X connect 0 2 36 0;
#X connect 0 2 30 0;
#X connect 2 0 1 0;
#X connect 2 0 29 0;
#X connect 2 0 31 0;
#X connect 3 0 1 0;
#X connect 3 0 29 0;
#X connect 3 0 31 0;
#X connect 6 0 7 0;
#X connect 6 1 8 0;
#X connect 8 0 7 1;
#X connect 9 0 7 0;
#X connect 12 0 7 0;
#X connect 13 0 7 0;
#X connect 16 0 7 0;
#X connect 18 0 7 0;
#X connect 19 0 7 0;
#X connect 21 0 22 0;
#X connect 21 1 34 0;
#X connect 24 0 22 0;
#X connect 25 0 26 0;
#X connect 25 1 33 0;
#X connect 28 0 26 0;
#X connect 30 0 29 2;
#X connect 32 0 31 2;
#X connect 33 0 26 1;
#X connect 34 0 22 1;
#X connect 36 0 35 2;
#X connect 37 0 3 0;
#X connect 38 0 2 0;
#X connect 40 0 2 0;
#X connect 41 0 3 0;
