#N canvas 357 490 941 480 12;
#X obj 145 19 notein;
#X obj 120 216 noteout;
#X msg 54 177 36;
#X msg 96 177 38;
#X obj 29 112 route 36;
#X obj 94 113 route 38;
#X text 65 94 Input notes;
#X text 52 157 Output notes;
#X obj 721 106 pgmin;
#X obj 704 222 pgmout;
#X msg 751 165 0;
#X msg 266 134 12;
#X text 245 116 No place;
#X text 320 116 This Body;
#X msg 340 137 10;
#X msg 420 136 4;
#X text 400 115 Lullaby;
#X text 464 114 Tantra;
#X msg 484 135 7;
#X text 650 123 Default;
#X msg 534 132 0;
#X msg 665 143 100;
#X text 519 112 Clone;
#X connect 0 0 5 0;
#X connect 0 0 4 0;
#X connect 0 1 1 1;
#X connect 0 2 1 2;
#X connect 2 0 1 0;
#X connect 3 0 1 0;
#X connect 4 0 2 0;
#X connect 5 0 3 0;
#X connect 8 0 9 0;
#X connect 8 1 10 0;
#X connect 10 0 9 1;
#X connect 11 0 9 0;
#X connect 14 0 9 0;
#X connect 15 0 9 0;
#X connect 18 0 9 0;
#X connect 20 0 9 0;
#X connect 21 0 9 0;
